<svg xmlns="http://www.w3.org/2000/svg" version="1.0" width="2000.000000pt" height="2000.000000pt" viewBox="0 0 2000.000000 2000.000000" preserveAspectRatio="xMidYMid meet">
<metadata>
meng
</metadata>
<g transform="translate(0.000000,2000.000000) scale(0.100000,-0.100000)" fill="#000000" stroke="none">
<path d="M9708 16045 c-2 -2 -48 -6 -103 -9 -114 -8 -164 -13 -253 -27 -34 -5 -83 -12 -109 -15 -37 -4 -190 -33 -323 -60 -168 -35 -580 -164 -720 -226 -23 -10 -36 -15 -95 -39 -71 -28 -319 -151 -433 -215 -227 -127 -415 -254 -622 -420 -168 -135 -200 -164 -360 -324 -175 -174 -224 -229 -345 -380 -33 -41 -62 -77 -65 -80 -7 -7 -118 -163 -167 -235 -88 -129 -159 -248 -236 -395 -27 -52 -55 -104 -62 -115 -42 -70 -242 -550 -251 -601 -1 -7 -11 -38 -22 -70 -40 -118 -106 -352 -127 -454 -2 -8 -11 -51 -20 -95 -21 -97 -22 -104 -29 -146 -3 -19 -8 -47 -11 -64 -9 -53 -15 -89 -20 -130 -3 -22 -7 -53 -10 -70 -3 -16 -7 -50 -10 -75 -3 -25 -7 -63 -10 -85 -6 -50 -15 -167 -21 -265 -5 -88 -10 -394 -19 -1100 -3 -283 -8 -652 -10 -820 -7 -528 -16 -1353 -20 -1665 -2 -165 -6 -547 -10 -850 -10 -848 -11 -1203 -2 -1285 91 -867 647 -1525 1460 -1730 111 -28 150 -35 277 -50 83 -10 317 -10 395 0 33 5 85 11 115 15 30 4 63 11 73 17 9 5 17 7 17 4 0 -6 166 38 240 63 275 95 487 208 720 387 335 256 565 595 644 947 23 100 27 149 32 387 5 258 9 399 20 735 4 132 8 439 7 683 0 407 1 441 16 428 9 -7 66 -44 126 -80 61 -37 117 -71 125 -76 40 -25 213 -106 289 -135 47 -18 140 -46 206 -63 229 -58 320 -67 680 -67 257 0 362 4 513 20 215 24 247 28 427 60 466 81 952 253 1330 470 106 61 335 218 440 302 146 116 395 364 495 493 19 25 37 47 40 50 6 5 71 94 111 150 83 116 213 339 283 485 48 99 88 187 92 200 3 10 78 200 95 240 4 11 22 65 40 120 86 273 153 555 194 825 16 108 25 172 30 215 4 28 8 61 10 75 2 14 6 63 10 110 4 47 9 103 11 125 5 49 5 472 -1 535 -13 161 -19 209 -36 324 -26 174 -53 305 -94 461 -33 125 -96 328 -114 370 -5 11 -14 36 -21 55 -14 41 -11 33 -90 215 -227 518 -564 1007 -995 1439 -164 165 -255 247 -410 372 -314 253 -610 445 -955 618 -102 51 -221 107 -265 126 -44 18 -84 36 -90 40 -10 7 -271 103 -365 133 -195 64 -447 127 -650 161 -172 29 -210 34 -395 52 -62 6 -591 14 -597 9z m2002 -1097 c165 -32 524 -233 780 -437 114 -91 409 -383 506 -501 127 -155 234 -301 234 -319 0 -5 3 -11 8 -13 31 -14 211 -384 238 -488 2 -8 15 -53 28 -100 32 -109 38 -140 40 -220 6 -140 -47 -232 -158 -280 -128 -54 -251 -38 -340 45 -57 54 -83 97 -136 225 -102 244 -232 474 -369 650 -181 233 -553 552 -936 802 -243 159 -300 228 -300 363 1 143 96 261 227 280 23 4 44 8 46 10 4 4 66 -4 132 -17z m-1625 -2622 c307 -33 598 -244 736 -534 22 -46 42 -91 45 -101 2 -9 12 -47 23 -84 92 -315 -4 -683 -241 -927 -257 -267 -634 -360 -978 -243 -530 180 -795 772 -581 1297 127 310 409 539 723 585 121 18 155 19 273 7z"/>
</g>
</svg>